<svg xmlns="http://www.w3.org/2000/svg" viewBox="0 0 240 320" role="img" aria-labelledby="title desc">
  <title id="title">Jazmin coach avatar</title>
  <desc id="desc">Anime-style chess coach avatar with long dark hair and a green shirt.</desc>
  <rect width="240" height="320" fill="#f8fafc"/>
  <path d="M64 320v-88c0-34 25-62 56-62s56 28 56 62v88z" fill="#274536"/>
  <path d="M72 242c10-18 27-29 48-29s38 11 48 29v78H72z" fill="#315640"/>
  <path d="M86 154c-20 10-38 42-44 92-3 28-9 54-22 74h35c20-45 28-94 31-166z" fill="#2d2925"/>
  <path d="M154 154c20 10 38 42 44 92 3 28 9 54 22 74h-35c-20-45-28-94-31-166z" fill="#2d2925"/>
  <path d="M88 170c7 23 20 37 32 37s25-14 32-37v-24H88z" fill="#e7b7a3"/>
  <path d="M92 174c8 17 18 25 28 25s20-8 28-25c-9 6-18 9-28 9s-19-3-28-9z" fill="#d79f8d" opacity=".45"/>
  <path d="M58 88c0-43 28-76 62-76s62 33 62 76c0 55-23 95-62 95S58 143 58 88z" fill="#f1c4b2"/>
  <path d="M57 96c-10 1-17 9-15 22 2 12 11 21 21 19z" fill="#eab6a4"/>
  <path d="M183 96c10 1 17 9 15 22-2 12-11 21-21 19z" fill="#eab6a4"/>
  <path d="M54 94c2-54 29-86 68-86 40 0 65 33 65 87-21-9-40-29-48-53-11 24-42 46-85 52z" fill="#2f2b27"/>
  <path d="M67 94c-8 41-5 103-1 162-18-52-26-126-12-167z" fill="#2f2b27"/>
  <path d="M173 93c8 44 5 105 1 163 18-52 26-126 12-167z" fill="#2f2b27"/>
  <path d="M73 99c30-10 54-32 66-59" fill="none" stroke="#1f1c19" stroke-width="6" stroke-linecap="round"/>
  <path d="M96 106c8-8 21-8 29 0" fill="none" stroke="#2b2521" stroke-width="3" stroke-linecap="round"/>
  <path d="M145 106c8-8 21-8 29 0" fill="none" stroke="#2b2521" stroke-width="3" stroke-linecap="round"/>
  <ellipse cx="108" cy="123" rx="10" ry="12" fill="#f8fafc"/>
  <ellipse cx="158" cy="123" rx="10" ry="12" fill="#f8fafc"/>
  <ellipse cx="109" cy="124" rx="6" ry="7" fill="#3d352f"/>
  <ellipse cx="157" cy="124" rx="6" ry="7" fill="#3d352f"/>
  <circle cx="111" cy="121" r="2" fill="#fff"/>
  <circle cx="159" cy="121" r="2" fill="#fff"/>
  <path d="M133 124c-3 11-2 17 2 20" fill="none" stroke="#b98779" stroke-width="3" stroke-linecap="round"/>
  <path d="M105 157c12 8 29 8 41 0" fill="none" stroke="#8f665d" stroke-width="3" stroke-linecap="round"/>
  <path d="M69 118c3 62 8 122-1 202h-29c18-58 16-133 30-202z" fill="#25221f"/>
  <path d="M171 118c-3 62-8 122 1 202h29c-18-58-16-133-30-202z" fill="#25221f"/>
  <path d="M59 267c28 17 92 17 121 0" fill="none" stroke="#1f382a" stroke-width="5" stroke-linecap="round" opacity=".45"/>
</svg>
